# xmcd
#
# Track frame offsets:
#        150
#        24325
#        42570
#        70220
#        95467
#        121310
#        146710
#        167127
#        195075
#        217515
#        257260
#
# Disc length: 3794 seconds
#
# Revision: 4
# Processed by: cddbd v1.5.1PL0 Copyright (c) Steve Scherf et al.
# Submitted via: ExactAudioCopy v0.95b2
#
DISCID=8b0ed00b
DTITLE=Scott Hamilton - The Man Plays Requested Standards
DYEAR=1900
DGENRE=
TTITLE0=Autumn Leaves
TTITLE1=Stardust
TTITLE2=It Could Happen To You
TTITLE3=It Never Entered My Mind
TTITLE4=Bernie's Tune
TTITLE5=East Of The Sun (And West Of The Moon)
TTITLE6=Time After Time
TTITLE7=Setagaya Serenade
TTITLE8=That's All
TTITLE9=All The Things You Are
TTITLE10=Indiana
EXTD=
EXTT0=
EXTT1=
EXTT2=
EXTT3=
EXTT4=
EXTT5=
EXTT6=
EXTT7=
EXTT8=
EXTT9=
EXTT10=
PLAYORDER=
